<svg xmlns="http://www.w3.org/2000/svg" viewBox="0 0 100 125" x="0px" y="0px"><path d="m 28.120435,5.2249558 c -7.377709,1.447947 -12.663193,7.3710092 -13.168868,13.8553952 -0.907372,11.635446 4.526579,23.072585 5.897905,32.922168 1.40206,10.07032 0.172801,11.442081 2.059586,23.716444 0.765354,4.978961 1.760589,10.380095 3.994349,14.479513 0.91254,1.674703 1.994643,2.960286 3.307819,3.807113 1.313176,0.846827 2.863614,1.167695 4.431231,0.90497 1.874624,-0.314179 3.138922,-1.830789 4.025554,-3.651085 0.886631,-1.820295 1.517828,-4.106068 2.02838,-6.615639 1.079571,-5.30654 1.524476,-10.576334 2.340438,-15.5155 0.406417,-2.460114 1.093871,-5.198902 2.309233,-7.17115 1.215362,-1.972249 2.674336,-3.120955 4.649671,-3.120585 1.975411,3.7e-4 3.448256,1.149301 4.649671,3.120585 1.201415,1.971283 1.85089,4.715744 2.278027,7.20855 0.9125,5.325427 1.43676,10.790022 2.371644,15.4781 0.500989,2.512266 1.107713,4.79548 1.997175,6.615639 0.889461,1.82016 2.182481,3.33638 4.05676,3.651085 1.567599,0.26321 3.115496,-0.05924 4.43123,-0.90497 1.315733,-0.845731 2.407813,-2.140518 3.339025,-3.807113 1.862425,-3.333189 3.118711,-8.181742 3.994349,-14.448307 1.346168,-9.633948 1.189087,-17.65148 2.02838,-23.74765 1.356639,-9.853901 6.804845,-21.281597 5.897905,-32.922168 C 84.544914,12.727223 80.165912,6.6842847 73.212883,5.4433967 68.749492,4.6468277 65.197304,5.3993717 61.697926,6.2859546 58.198547,7.1725374 54.711223,8.1881103 48.496526,8.3219534 42.28183,8.4557966 37.368969,5.1502187 31.334637,5.0065149 30.111289,4.9773816 29.036233,5.0452215 28.120435,5.2249558 z m 2.870937,2.3404385 C 36.11379,7.5768151 41.411934,11.088837 48.265624,10.944042 55.119313,10.799248 58.93584,9.6794436 62.353248,8.8136281 65.786261,7.9438596 68.788737,7.3274518 72.744795,8.033482 c 5.687225,1.014988 9.26113,5.969339 9.673813,11.26531 0.831576,10.671641 -4.406006,21.846988 -5.866699,32.329257 -1.43076,10.267463 -0.408885,11.601239 -2.028381,23.74765 -0.812266,6.092101 -2.136803,10.721525 -3.713495,13.543337 -0.788347,1.410907 -1.641383,2.341362 -2.465262,2.870938 -0.823879,0.529576 -1.612043,0.694719 -2.590085,0.530499 -0.671363,-0.112726 -1.378633,-0.75828 -2.090792,-2.215615 -0.71216,-1.457335 -1.323615,-3.558088 -1.809939,-5.960317 -0.970714,-4.794906 -1.452824,-10.706458 -2.309233,-15.32207 -0.551943,-2.974695 -1.339061,-6.005836 -2.683703,-8.238344 -1.47399,-2.447267 -3.784263,-4.36294 -6.84972,-4.363533 -3.065458,-5.92e-4 -5.378143,1.92499 -6.880852,4.363533 -1.49744,2.429995 -2.255982,5.435082 -2.714909,8.207138 -0.87095,5.260794 -1.38292,10.669618 -2.309233,15.353276 -0.475414,2.403808 -1.069239,4.503694 -1.778733,5.960317 -0.709494,1.456623 -1.451098,2.103122 -2.121997,2.215615 -0.97814,0.164009 -1.738424,-0.0014 -2.55888,-0.530499 -0.820456,-0.529088 -1.6805,-1.459749 -2.465262,-2.870938 -1.569522,-2.82238 -2.86992,-7.451979 -3.68229,-13.543337 C 23.878835,63.226209 24.868558,61.892 23.439558,51.628049 21.98043,41.147705 16.741139,29.965344 17.572858,19.298792 17.97622,14.125809 22.327865,9.0776079 28.619728,7.8150411 29.467721,7.6448772 30.226421,7.5636888 30.991372,7.5653943 z" color="#000"/><path d="m 42.928804,23.628259 c -1.289098,0 -2.360833,1.071717 -2.360833,2.360832 0,1.289112 1.071735,2.360831 2.360833,2.360831 1.289095,0 2.36083,-1.071719 2.36083,-2.360831 0,-1.289115 -1.071735,-2.360832 -2.36083,-2.360832 z" color="#000"/><path d="m 57.093795,23.628259 c -1.289094,0 -2.360833,1.071717 -2.360833,2.360832 0,1.289112 1.071739,2.360831 2.360833,2.360831 1.289092,0 2.360831,-1.071719 2.360831,-2.360831 0,-1.289115 -1.071739,-2.360832 -2.360831,-2.360832 z" color="#000"/><path d="m 60.712702,39.470683 c 0.761414,-1.160397 -0.06249,-2.26256 -1.102757,-2.221046 -0.475004,0.01896 -0.888903,0.338414 -1.149352,0.729994 -1.899024,2.855142 -5.178033,4.286774 -8.449294,4.286774 -3.27126,0 -6.55027,-1.431633 -8.449294,-4.286774 -0.260449,-0.391579 -0.674349,-0.711041 -1.149352,-0.729995 -1.040267,-0.04151 -1.864171,1.060649 -1.102756,2.221047 C 41.740999,43.175692 45.890316,45 50.011299,45 54.132283,45 58.2816,43.175692 60.712702,39.470683 z" color="#000"/><text x="0" y="115" fill="#000000" font-size="5px" font-weight="bold" font-family="'Helvetica Neue', Helvetica, Arial-Unicode, Arial, Sans-serif">Created by Magicon</text><text x="0" y="120" fill="#000000" font-size="5px" font-weight="bold" font-family="'Helvetica Neue', Helvetica, Arial-Unicode, Arial, Sans-serif">from the Noun Project</text></svg>