<?xml version="1.0" encoding="UTF-8" standalone="no"?>
<svg width="80px" height="80px" viewBox="0 0 80 80" version="1.1" xmlns="http://www.w3.org/2000/svg" xmlns:xlink="http://www.w3.org/1999/xlink" xmlns:sketch="http://www.bohemiancoding.com/sketch/ns">
    <title>tooth</title>
    <description>Created with Sketch (http://www.bohemiancoding.com/sketch)</description>
    <defs></defs>
    <g id="Page-1" stroke="none" stroke-width="1" fill="none" fill-rule="evenodd" sketch:type="MSPage">
        <g id="logo" sketch:type="MSLayerGroup">
            <path d="M40,0 C62.091,0 80,17.909 80,40 C80,62.091 62.091,80 40,80 C17.909,80 0,62.091 0,40 C0,17.909 17.909,0 40,0 L40,0 Z" id="Shape" fill="#FFFFFF" sketch:type="MSShapeGroup"></path>
            <g id="tooth" transform="translate(27.000000, 26.000000)" fill="#8CC9F0" sketch:type="MSShapeGroup">
                <path d="M4.68586964,0.0824837933 C2.05097357,0.613397693 0.163300714,2.78518717 -0.0172975,5.16279537 C-0.341358929,9.42912557 1.59933786,13.6227432 2.08909714,17.234257 C2.58983286,20.9267076 2.15081179,21.4296867 2.82466357,25.9302864 C3.09800429,27.7559055 3.45344536,29.7363213 4.25121679,31.2394412 C4.57712393,31.853499 4.96358929,32.3248794 5.43258071,32.6353826 C5.90157214,32.9458859 6.4553,33.0635375 7.01516321,32.967205 C7.68467179,32.852006 8.13620679,32.2959157 8.45286107,31.6284738 C8.769515,30.9610323 8.9949425,30.1229155 9.1772825,29.2027395 C9.56284357,27.2570082 9.72173821,25.3247504 10.0131532,23.5137228 C10.1583021,22.611681 10.4038214,21.6074588 10.8378793,20.8843012 C11.2719371,20.1611432 11.7929993,19.739951 12.4984761,19.7400867 C13.20398,19.7402223 13.7299961,20.161497 14.1590729,20.8843012 C14.5881496,21.6071049 14.820105,22.6134073 14.9726539,23.5274362 C15.2985468,25.4800927 15.4857825,27.4837776 15.8196696,29.2027395 C15.9985943,30.1239037 16.2152814,30.9610822 16.5329464,31.6284738 C16.8506111,32.2958658 17.3124039,32.8518131 17.9817893,32.967205 C18.5416461,33.0637153 19.0944664,32.9454836 19.5643714,32.6353826 C20.0342761,32.3252813 20.4243046,31.850526 20.7568804,31.2394412 C21.4220321,30.0172719 21.8707057,28.2394691 22.1834336,25.9417286 C22.6642079,22.409281 22.6081075,19.4695193 22.907855,17.234257 C23.3923689,13.6211599 25.3381568,9.43100473 25.0142496,5.16279537 C24.8374693,2.8333151 23.27354,0.617571057 20.7903154,0.16257879 C19.1962471,-0.12949651 17.9276086,0.14643629 16.6778307,0.471516687 C15.4280525,0.796597047 14.1825796,1.16897378 11.963045,1.21804958 C9.74351071,1.26712542 7.9889175,0.05508019 5.83379893,0.00238879667 C5.39688893,-0.00829341333 5.01294036,0.0165812167 4.68586964,0.0824837933 L4.68586964,0.0824837933 Z M5.71120429,0.940644577 C7.54063929,0.944832203 9.43283357,2.23257357 11.88058,2.17948207 C14.3283261,2.12639093 15.6913714,1.71579599 16.9118743,1.3983303 C18.1379504,1.07941519 19.2102632,0.853398993 20.6231411,1.11227673 C22.6542929,1.484439 23.9306875,3.30103437 24.0780743,5.2428904 C24.3750657,9.15582543 22.5045007,13.2534527 21.9828246,17.0969513 C21.4718389,20.8616877 21.8367943,21.3507389 21.2584029,25.804423 C20.9683079,28.0381933 20.4952589,29.7356488 19.9321546,30.7703132 C19.6506021,31.2876458 19.3459464,31.6288126 19.0517039,31.8229905 C18.7574614,32.0171683 18.4759743,32.0777208 18.1266736,32.0175068 C17.8869011,31.9761739 17.6343046,31.7394708 17.3799621,31.2051146 C17.1256193,30.6707584 16.9072425,29.9004823 16.7335554,29.019665 C16.3868718,27.2615328 16.2146896,25.0939638 15.9088293,23.4015727 C15.7117068,22.3108512 15.4305932,21.1994328 14.9503639,20.3808466 C14.4239389,19.4835153 13.5988414,18.7811019 12.5040354,18.7808845 C11.4092289,18.7806674 10.58327,19.4867141 10.0465882,20.3808466 C9.51178821,21.2718447 9.24088036,22.37371 9.07697786,23.3901305 C8.76592429,25.3190883 8.58307786,27.3023238 8.25225179,29.019665 C8.08246107,29.9010613 7.87038071,30.6710195 7.61699,31.2051146 C7.36359929,31.7392097 7.09874071,31.9762593 6.85913393,32.0175068 C6.50979821,32.0776434 6.23826821,32.0169934 5.94524821,31.8229905 C5.65222821,31.6289915 5.34506964,31.2877492 5.0647975,30.7703132 C4.50425393,29.7354405 4.03982607,28.0379209 3.74969393,25.804423 C3.1710125,21.34961 3.524485,20.8604 3.01412786,17.0969513 C2.49301071,13.2541585 0.621835357,9.15395947 0.918877857,5.2428904 C1.06293571,3.34612997 2.61709464,1.4951229 4.86418857,1.03218174 C5.16704321,0.969788307 5.4380075,0.940019227 5.71120429,0.940644577 L5.71120429,0.940644577 Z" id="Shape"></path>
                <path d="M9.97457286,6.83036163 C9.51418071,6.83036163 9.13141821,7.22332453 9.13141821,7.69600003 C9.13141821,8.16867443 9.51418071,8.56163807 9.97457286,8.56163807 C10.4349639,8.56163807 10.8177264,8.16867443 10.8177264,7.69600003 C10.8177264,7.22332453 10.4349639,6.83036163 9.97457286,6.83036163 L9.97457286,6.83036163 Z" id="Shape"></path>
                <path d="M15.0334982,6.83036163 C14.5731075,6.83036163 14.1903436,7.22332453 14.1903436,7.69600003 C14.1903436,8.16867443 14.5731075,8.56163807 15.0334982,8.56163807 C15.4938882,8.56163807 15.8766521,8.16867443 15.8766521,7.69600003 C15.8766521,7.22332453 15.4938882,6.83036163 15.0334982,6.83036163 L15.0334982,6.83036163 Z" id="Shape"></path>
                <path d="M16.325965,12.6392504 C16.5978986,12.2137715 16.3036471,11.8096451 15.9321232,11.8248669 C15.7624789,11.8318189 15.6146579,11.948952 15.5216404,12.0925314 C14.8434175,13.1394168 13.6723429,13.6643485 12.5040354,13.6643485 C11.3357282,13.6643485 10.1646532,13.1394164 9.48643036,12.0925314 C9.39341286,11.9489524 9.24559143,11.8318163 9.0759475,11.8248665 C8.70442357,11.8096462 8.41017214,12.2137712 8.68210607,12.6392504 C9.55035679,13.9977537 11.0322557,14.6666667 12.5040354,14.6666667 C13.9758154,14.6666667 15.4577143,13.9977537 16.325965,12.6392504 L16.325965,12.6392504 Z" id="Shape"></path>
            </g>
        </g>
    </g>
</svg>